<?xml version="1.0" standalone="no"?>
<!DOCTYPE svg PUBLIC "-//W3C//DTD SVG 20010904//EN"
 "http://www.w3.org/TR/2001/REC-SVG-20010904/DTD/svg10.dtd">
<svg version="1.0" xmlns="http://www.w3.org/2000/svg"
 width="56.000000pt" height="56.000000pt" viewBox="0 0 56.000000 56.000000"
 preserveAspectRatio="xMidYMid meet">
<metadata>
Created by potrace 1.16, written by Peter Selinger 2001-2019
</metadata>
<g transform="translate(0.000000,56.000000) scale(0.087500,-0.087500)"
fill="#000000" stroke="none">
<path d="M174 538 c-12 -5 -27 -21 -34 -34 -7 -13 -17 -21 -22 -18 -5 3 -8 2
-7 -3 1 -4 0 -10 -1 -13 -9 -18 -6 -277 4 -289 9 -12 8 -13 -4 -7 -9 4 -8 2 2
-7 10 -8 16 -16 14 -18 -2 -2 6 -13 17 -24 11 -11 17 -15 13 -8 -4 8 2 8 21
-2 31 -14 268 -16 291 -2 6 5 12 5 12 2 0 -9 23 16 43 47 14 23 17 49 16 145
-2 133 -7 185 -19 178 -5 -3 -11 3 -14 13 -13 40 -57 52 -188 51 -67 0 -133
-5 -144 -11z"/>
</g>
</svg>
