<?xml version="1.0" standalone="no"?>
<!DOCTYPE svg PUBLIC "-//W3C//DTD SVG 20010904//EN"
 "http://www.w3.org/TR/2001/REC-SVG-20010904/DTD/svg10.dtd">
<svg version="1.0" xmlns="http://www.w3.org/2000/svg"
 width="64.000000pt" height="64.000000pt" viewBox="0 0 64.000000 64.000000"
 preserveAspectRatio="xMidYMid meet">

<g transform="translate(0.000000,64.000000) scale(0.100000,-0.100000)"
fill="#000000" stroke="none">
<path d="M162 517 c-20 -22 -22 -33 -22 -158 0 -183 -4 -179 183 -179 182 0
177 -5 177 180 0 184 4 180 -181 180 -129 0 -137 -1 -157 -23z m190 -84 c-6
-10 -24 -31 -41 -47 l-31 -30 42 -43 c23 -23 40 -45 37 -48 -3 -2 -27 18 -54
45 l-49 50 49 50 c49 50 65 58 47 23z"/>
</g>
</svg>
